<?xml version="1.0" standalone="no"?><!DOCTYPE svg PUBLIC "-//W3C//DTD SVG 1.1//EN" "http://www.w3.org/Graphics/SVG/1.1/DTD/svg11.dtd"><svg t="1603567092005" class="icon" viewBox="0 0 1024 1024" version="1.1" xmlns="http://www.w3.org/2000/svg" p-id="13458" xmlns:xlink="http://www.w3.org/1999/xlink" width="200" height="200"><defs><style type="text/css"></style></defs><path d="M633.41568 964.36224c-85.70368 0-167.07072-32.49664-229.10976-91.49952a5.12 5.12 0 0 1-0.09216-7.33184l35.61984-35.61984a5.10464 5.10464 0 0 1 7.13216-0.11264c50.66752 47.70304 116.90496 73.97376 186.52672 73.97376 72.4992 0 140.63616-28.2368 191.86176-79.49824 104.52992-104.53504 106.96192-270.74048 5.53472-378.38848a5.12 5.12 0 0 1 0.10752-7.13216l35.6096-35.61984a5.12 5.12 0 0 1 3.61984-1.50016h0.06656a5.12 5.12 0 0 1 3.64544 1.59232c59.99616 63.11936 92.4928 145.83296 91.51488 232.90368-0.97792 87.23456-35.51744 169.27232-97.23904 230.99392-62.70976 62.70464-146.08896 97.23904-234.79808 97.23904z m-413.01504-110.13632c-16.28672 0-31.60064-6.3488-43.13088-17.87392l-99.06688-98.97984a60.61056 60.61056 0 0 1-17.87392-43.21792 60.39552 60.39552 0 0 1 17.88416-43.04384l98.9696-98.96448c11.46368-11.46368 26.8032-17.77664 43.19744-17.77664 16.31744 0 31.54432 6.21568 42.87488 17.49504l28.3136 28.26752 28.43136-28.4416-123.13088-123.04896c-23.7568-23.7568-23.83872-62.33088-0.1792-85.9904l147.03104-147.03104a60.17536 60.17536 0 0 1 42.84416-17.69984c16.29696 0 31.5904 6.31808 43.0592 17.78688l123.20256 123.19744 28.48768-28.28288-28.19072-28.16a60.6208 60.6208 0 0 1-17.87392-43.22816 60.40576 60.40576 0 0 1 17.87904-43.03872l99.06176-99.05664a60.544 60.544 0 0 1 43.11552-17.8432c16.31744 0 31.6416 6.33344 43.14624 17.8432l98.9696 98.97472a60.63104 60.63104 0 0 1 17.87904 43.22304 60.40064 60.40064 0 0 1-17.88416 43.03872l-98.96448 99.05664a60.66176 60.66176 0 0 1-43.16672 17.87392c-16.31232 0-31.62112-6.3488-43.10528-17.88416l-28.01664-27.99104-28.416 28.40576 110.92992 110.9248c23.90528 23.90528 23.90528 62.80704 0 86.7072l-51.49184 51.49184 81.27488 76.83584c11.904 11.33056 13.52192 29.60384 4.05504 42.43456l0.25088 0.25088-3.30752 3.30752a5.08416 5.08416 0 0 1-2.65216 1.40288 33.4592 33.4592 0 0 1-17.60256 4.97664 33.92 33.92 0 0 1-23.38816-9.3184l-81.4848-77.0304-51.70176 51.69664a61.0816 61.0816 0 0 1-43.4688 18.04288 60.34432 60.34432 0 0 1-42.96704-17.78176L362.88 594.5344l-28.43136 28.43136 27.79136 27.79648a61.184 61.184 0 0 1 18.04288 43.61728 60.21632 60.21632 0 0 1-17.78176 42.91584l-98.9696 99.05664a60.61568 60.61568 0 0 1-43.13088 17.87392z m0.04608-60.32384l99.6096-99.6096-99.6096-99.6096-99.6096 99.6096 99.6096 99.6096z m296.92416-130.56512l147.04128-147.04128-277.7856-277.78048-147.04128 147.03616 277.7856 277.7856z m177.99168-344.44288l99.6096-99.6096-99.6096-99.6096-99.6096 99.6096 99.6096 99.6096z" p-id="13459" fill="#F5EDFA"></path></svg>