<svg xmlns="http://www.w3.org/2000/svg" viewBox="0 0 923.08 449.38"><defs><style>.cls-1{fill:#f5edfa;}</style></defs><title>space_logo</title><g id="Layer_2" data-name="Layer 2"><g id="Layer_1-2" data-name="Layer 1"><path class="cls-1" d="M0,433.78H8.73c.31,2.81,1.25,4.68,2.5,5.62,1.24,1.24,3.43,1.56,6.23,1.56,5.31,0,7.8-2.19,7.8-6.24a6.17,6.17,0,0,0-1.56-4.37c-.93-.93-2.81-1.56-5-2.18L14,427.55C5.3,426,.94,421.62.94,414.14A13.85,13.85,0,0,1,5.3,403.53a18.15,18.15,0,0,1,11.85-4q7,0,11.23,3.74c2.81,2.5,4.36,6.24,4.68,10.61H24.32a5.82,5.82,0,0,0-2.18-5,8.9,8.9,0,0,0-5.3-1.56,8.24,8.24,0,0,0-5.3,1.56q-1.87,1.4-1.87,4.67a5.93,5.93,0,0,0,1.56,4.06c.93.93,2.8,1.56,5,2.18l5,.94c8.42,1.56,12.47,5.92,12.47,13.72q0,7.48-4.68,11.22c-3.12,2.5-7.17,3.75-12.47,3.75s-9.36-1.25-12.16-3.75A20.1,20.1,0,0,1,0,433.78Zm76.4-25.57v40.54H67.05V408.21H54.57V400.1h34v8.11Zm38.67,30.88-2.8,9.35H102.6l17.15-48.34h7.48l17.16,48.34h-9.67l-2.81-9.35Zm8.42-26.2-5.92,18.71h11.85Zm52.08,16.22v19.64h-9V400.42h18.4q7,0,11.22,3.74a15.49,15.49,0,0,1,2.19,18.71,16.52,16.52,0,0,1-6.24,5l10.6,21.2H192.1l-9-19.64h-7.49Zm8.73-7.8a6.44,6.44,0,0,0,6.86-6.86,6.35,6.35,0,0,0-1.87-4.68,6.55,6.55,0,0,0-5-1.87h-8.73V421h8.73Zm50.21-21.21v40.54h21.21v8.11H225.47V400.42h9Zm54.26,0v48.65h-9V400.42h9Zm62.69,48.65h-9L324.64,418.5v30.25H315V400.42h9l17.78,30.25V400.42h9v48.33ZM386.38,435v13.41h-9V400.1h9v22.46l16.84-22.46h10.92l-15.6,19.34,16.84,29h-10.6l-11.85-21.52ZM13.72,340.23,1.56,352.08H109.15C399.17,60.81,816.74,9,923.08.31V0C342.72,33.37,74.53,281.6,13.72,340.23"/><path class="cls-1" d="M310,351.51l106.33-.62L268.52,243.23c-17.71,12.26-36,26.09-53.41,39.91ZM114.42,130l-106.34.62,125.28,90.64c18-12.27,38.83-25.49,58.1-36.83Z"/></g></g></svg>